<?xml version="1.0" encoding="UTF-8"?>
<svg width="452px" height="452px" viewBox="0 0 452 452" version="1.1" xmlns="http://www.w3.org/2000/svg" xmlns:xlink="http://www.w3.org/1999/xlink">
    <!-- Generator: Sketch 44.1 (41455) - http://www.bohemiancoding.com/sketch -->
    <title>CharronGuitar-logo</title>
    <desc>Created with Sketch.</desc>
    <defs></defs>
    <g id="Page-1" stroke="none" stroke-width="1" fill="none" fill-rule="evenodd">
        <g id="CharronGuitar-logo">
            <g id="Text" transform="translate(0.000000, 27.000000)">
                <g id="Group">
                    <g id="Group-2" transform="translate(24.000000, 0.000000)" font-weight="normal" font-family="FontinSans-SmallCaps, Fontin Sans" letter-spacing="-2" fill="#FFFFFF" font-size="28">
                        <text id="Stringed-instrument" line-spacing="100">
                            <tspan x="136.038" y="124">Stringed instrument repair. </tspan>
                            <tspan x="466.522" y="124"> </tspan>
                        </text>
                        <text id="custom-guitars-•-Res">
                            <tspan x="186.74" y="239">custom guitars • Restoration</tspan>
                        </text>
                    </g>
                    <path d="M34.0340759,247.645076 C55.4817469,332.335671 132.20352,395 223.561331,395 C314.9566,395 391.703826,332.284274 413.114939,247.540893 C411.749806,247.476744 410.38971,247.413149 409.034649,247.350109 C387.784758,329.957991 312.801607,391 223.561331,391 C134.360495,391 59.4041856,330.011935 38.1162196,247.459624 C36.7605543,247.520927 35.3998398,247.582745 34.0340759,247.645076 Z M34,151.489683 C55.4003764,66.7308116 132.155071,4 223.561331,4 C314.950918,4 391.694283,66.7079278 413.110945,151.443302 C411.745808,151.507443 410.385689,151.571043 409.030587,151.634104 C387.775204,69.0342317 312.795922,8 223.561331,8 C134.310201,8 59.3196637,69.0568588 38.0802619,151.680035 C36.7252097,151.617126 35.3651224,151.553676 34,151.489683 Z" id="Combined-Shape" fill="#D8D8D8"></path>
                    <path d="M90.3037026,239.463982 C97.3880372,263.100018 110.841047,285.152484 130.518549,302.870186 C187.702626,354.35896 275.799379,349.742005 327.288154,292.557928 C341.562408,276.704762 351.524561,258.47575 357.25001,239.309555 C356.161644,239.262888 355.077551,239.216691 353.997734,239.170964 C348.412553,257.874456 338.6921,275.663525 324.762765,291.133619 C274.529814,346.922963 188.581763,351.427309 132.792419,301.194359 C113.592967,283.907094 100.467385,262.38996 93.5563822,239.32784 C92.476423,239.372786 91.3921964,239.418167 90.3037026,239.463982 Z M90,160.17659 C95.6841847,140.707662 105.726716,122.181778 120.206291,106.100581 C171.695066,48.9165035 259.791818,44.2995484 316.975896,95.7883229 C336.925833,113.751327 350.477729,136.169956 357.481328,160.177155 C356.224772,160.231291 354.973885,160.284816 353.728666,160.337731 C346.763687,137.537339 333.709299,116.277498 314.702026,99.1632729 C258.912682,48.9303221 172.96463,53.4346686 122.73168,109.224012 C109.01338,124.459728 99.3773951,141.944684 93.7534118,160.337206 C92.5079441,160.284278 91.2568068,160.230739 90,160.17659 Z" id="Combined-Shape" fill="#D8D8D8"></path>
                    <text id="Charron-guitars" font-family="FontinSans-Italic, Fontin Sans" font-size="72" font-style="italic" font-weight="normal" letter-spacing="-2.25" fill="#FFFFFF">
                        <tspan x="0.467" y="218">Charron guitars</tspan>
                    </text>
                </g>
            </g>
        </g>
    </g>
</svg>